<svg width="10" height="10" viewBox="0 0 10 10" fill="none" xmlns="http://www.w3.org/2000/svg">
<circle cx="3" cy="5" r="2" fill="#78787A"/>
<path fill-rule="evenodd" clip-rule="evenodd" d="M4.6202 1.63479C4.79979 1.42502 5.11543 1.40057 5.32519 1.58016C6.26529 2.38505 6.99992 3.6043 6.99992 4.99977C6.99992 6.39524 6.26528 7.6144 5.32519 8.41928C5.11543 8.59888 4.79979 8.57442 4.6202 8.36466C4.44061 8.15489 4.46506 7.83926 4.67483 7.65966C5.44849 6.99728 5.99992 6.03724 5.99992 4.99977C5.99992 3.96228 5.44847 3.00216 4.67483 2.33978C4.46506 2.16019 4.44061 1.84455 4.6202 1.63479Z" fill="#78787A"/>
<path fill-rule="evenodd" clip-rule="evenodd" d="M5.93078 0.222301C6.11651 0.0179518 6.43273 0.00285968 6.63708 0.188591C7.92375 1.35804 8.90077 3.06783 8.90077 4.99989C8.90077 6.93195 7.92375 8.64175 6.63708 9.81119C6.43273 9.99692 6.11651 9.98183 5.93078 9.77748C5.74505 9.57313 5.76014 9.25691 5.96449 9.07118C7.09299 8.04549 7.90077 6.58863 7.90077 4.99989C7.90077 3.41115 7.09299 1.95429 5.96449 0.928603C5.76014 0.742872 5.74505 0.426649 5.93078 0.222301Z" fill="#78787A"/>
</svg>
