<svg width="10" height="10" viewBox="0 0 10 10" fill="none" xmlns="http://www.w3.org/2000/svg">
<path fill-rule="evenodd" clip-rule="evenodd" d="M2.4231 3.08446C1.59977 3.33208 1 4.096 1 5C1 6.10457 1.89543 7 3 7C3.904 7 4.66792 6.40023 4.91554 5.5769L2.4231 3.08446ZM5.68757 6.34893C5.45123 6.85036 5.09595 7.29911 4.67483 7.65966C4.46506 7.83926 4.44061 8.15489 4.6202 8.36465C4.79979 8.57442 5.11543 8.59888 5.32519 8.41928C5.75177 8.05406 6.13605 7.60353 6.42858 7.08994L5.68757 6.34893ZM7.07951 7.74086C6.77105 8.23504 6.39064 8.68385 5.96449 9.07118C5.76014 9.25691 5.74505 9.57313 5.93078 9.77748C6.11651 9.98183 6.43273 9.99692 6.63708 9.81119C7.06876 9.41885 7.46558 8.96568 7.80234 8.4637L7.07951 7.74086ZM8.52354 7.06358L7.72909 6.26913C7.84021 5.86003 7.90077 5.43491 7.90077 4.99989C7.90077 3.41115 7.09299 1.95429 5.96449 0.928603C5.76014 0.742872 5.74505 0.426649 5.93078 0.222301C6.11651 0.0179518 6.43273 0.00285967 6.63708 0.188591C7.92375 1.35804 8.90077 3.06783 8.90077 4.99989C8.90077 5.72466 8.76328 6.41815 8.52354 7.06358ZM6.96741 5.50745L5.95695 4.49699C5.81324 3.65564 5.32171 2.89363 4.67483 2.33978C4.46506 2.16019 4.44061 1.84455 4.6202 1.63479C4.79979 1.42502 5.11543 1.40057 5.32519 1.58016C6.26529 2.38505 6.99992 3.6043 6.99992 4.99977C6.99992 5.17182 6.98875 5.3412 6.96741 5.50745Z" fill="#78787A"/>
<path fill-rule="evenodd" clip-rule="evenodd" d="M0.447228 0.846229C0.64249 0.650967 0.959072 0.650967 1.15433 0.846229L9.15433 8.84623C9.3496 9.04149 9.3496 9.35807 9.15433 9.55334C8.95907 9.7486 8.64249 9.7486 8.44723 9.55334L0.447228 1.55334C0.251966 1.35807 0.251966 1.04149 0.447228 0.846229Z" fill="#78787A"/>
</svg>
